# xmcd
#
# Track frame offsets:
#	150
#	14307
#	27413
#	41936
#	57030
#	68871
#	83408
#	95178
#	108793
#	121581
#	135266
#	146644
#	160216
#	173925
#	189549
#	202787
#	216650
#	230191
#	245017
#	255052
#	268820
#	282574
#	296704
#	306350
#
# Disc length: 4267 seconds
#
# Revision: 1
# Processed by: cddbd v1.5.1PL0 Copyright (c) Steve Scherf et al.
# Submitted via: audiograbber 1.83.01
#
DISCID=6510a918
DTITLE=Billie Holiday - Les Etoiles Du Jazz
DYEAR=1900
DGENRE=
TTITLE0=Carelessly
TTITLE1=Summertime
TTITLE2=If You Were Mine
TTITLE3=These Foolish Things
TTITLE4=No Regrets
TTITLE5=Who Loves You?
TTITLE6=Me, Myself And I
TTITLE7=The Way You Look Tonight
TTITLE8=A Sailboat In The Moonlight
TTITLE9=Easy Living
TTITLE10=How Could You?
TTITLE11=What A Little Moonlight Can Do
TTITLE12=Getting Some Fun Out Of Life
TTITLE13=I Can't Give You Anything But Love
TTITLE14=I've Got My Love To Keep Me Warm
TTITLE15=Moanin' Low
TTITLE16=The Mood That I'm In
TTITLE17=Yours And Mine
TTITLE18=Travellin' All Alone
TTITLE19=Twenty-Four Hours A Day
TTITLE20=They Can't Take That Away From Me
TTITLE21=That's Life, I Guess
TTITLE22=I'm Gonna Lock My Heart
TTITLE23=My man
EXTD=Disc 01 of 03
EXTT0=
EXTT1=
EXTT2=
EXTT3=
EXTT4=
EXTT5=
EXTT6=
EXTT7=
EXTT8=
EXTT9=
EXTT10=
EXTT11=
EXTT12=
EXTT13=
EXTT14=
EXTT15=
EXTT16=
EXTT17=
EXTT18=
EXTT19=
EXTT20=
EXTT21=
EXTT22=
EXTT23=
PLAYORDER=
